<?xml version="1.0" encoding="iso-8859-1"?>
<!-- Generator: Adobe Illustrator 19.0.0, SVG Export Plug-In . SVG Version: 6.00 Build 0)  -->
<svg version="1.1" id="Layer_1" xmlns="http://www.w3.org/2000/svg" xmlns:xlink="http://www.w3.org/1999/xlink" x="0px" y="0px"
	 viewBox="0 0 512.035 512.035" style="enable-background:new 0 0 512.035 512.035;" xml:space="preserve">
<g>
	<g>
		<path d="M509.475,250.044L262.008,2.577c-1.707-1.707-3.413-2.56-5.973-2.56H8.568c-3.413,0-6.827,1.707-7.68,5.12
			c-1.707,3.413-0.853,6.827,1.707,9.387l241.493,241.493L2.595,497.511c-2.56,2.56-2.56,5.973-1.707,9.387
			c0.853,3.413,4.267,5.12,7.68,5.12h247.467c2.56,0,4.267-0.853,5.973-2.56l247.467-247.467
			C512.888,258.577,512.888,253.457,509.475,250.044z M252.621,494.951H29.048l232.96-232.96c3.413-3.413,3.413-8.533,0-11.947
			L29.048,17.084h223.573l238.933,238.933L252.621,494.951z"/>
	</g>
</g>
<g>
</g>
<g>
</g>
<g>
</g>
<g>
</g>
<g>
</g>
<g>
</g>
<g>
</g>
<g>
</g>
<g>
</g>
<g>
</g>
<g>
</g>
<g>
</g>
<g>
</g>
<g>
</g>
<g>
</g>
</svg>
