<?xml version="1.0" encoding="iso-8859-1"?>
<!-- Generator: Adobe Illustrator 19.0.0, SVG Export Plug-In . SVG Version: 6.00 Build 0)  -->
<svg version="1.1" id="Layer_1" xmlns="http://www.w3.org/2000/svg" xmlns:xlink="http://www.w3.org/1999/xlink" x="0px" y="0px"
	 viewBox="0 0 512.035 512.035" style="enable-background:new 0 0 512.035 512.035;" xml:space="preserve">
<g>
	<g>
		<path d="M267.947,256.017L509.44,14.524c2.56-2.56,3.413-5.973,1.707-9.387c-0.853-3.413-4.267-5.12-7.68-5.12H256
			c-2.56,0-4.267,0.853-5.973,2.56L2.56,250.044c-3.413,3.413-3.413,8.533,0,11.947l247.467,247.467
			c1.707,1.707,3.413,2.56,5.973,2.56h247.467c3.413,0,6.827-1.707,7.68-5.12c1.707-3.413,0.853-6.827-1.707-9.387L267.947,256.017z
			 M259.413,494.951L20.48,256.017L259.413,17.084h223.573l-232.96,232.96c-3.413,3.413-3.413,8.533,0,11.947l232.96,232.96H259.413
			z"/>
	</g>
</g>
<g>
</g>
<g>
</g>
<g>
</g>
<g>
</g>
<g>
</g>
<g>
</g>
<g>
</g>
<g>
</g>
<g>
</g>
<g>
</g>
<g>
</g>
<g>
</g>
<g>
</g>
<g>
</g>
<g>
</g>
</svg>
